<mxfile host="app.diagrams.net" modified="2024-05-22T10:03:42.123Z" agent="Mozilla/5.0 (Windows NT 10.0; Win64; x64; rv:126.0) Gecko/20100101 Firefox/126.0" etag="Gzofxf8YNaZALPWHgIdo" version="24.4.4" type="github">
  <diagram name="Страница — 1" id="pdOZdxwdt70tDH0--Hyy">
    <mxGraphModel dx="1354" dy="1017" grid="1" gridSize="10" guides="1" tooltips="1" connect="1" arrows="1" fold="1" page="0" pageScale="1" pageWidth="827" pageHeight="1169" background="none" math="0" shadow="0">
      <root>
        <mxCell id="0" />
        <mxCell id="1" parent="0" />
        <mxCell id="SDaeNK49fz3u2ENC72t_-1" value="Data" style="rounded=1;whiteSpace=wrap;html=1;labelPosition=center;verticalLabelPosition=top;align=center;verticalAlign=bottom;fontSize=24;" parent="1" vertex="1">
          <mxGeometry y="-70" width="760" height="310" as="geometry" />
        </mxCell>
        <mxCell id="SDaeNK49fz3u2ENC72t_-7" value="" style="group" parent="1" vertex="1" connectable="0">
          <mxGeometry x="380" y="60" width="150" height="150" as="geometry" />
        </mxCell>
        <mxCell id="SDaeNK49fz3u2ENC72t_-6" value="API&#39;s" style="rounded=1;whiteSpace=wrap;html=1;labelPosition=center;verticalLabelPosition=top;align=center;verticalAlign=bottom;" parent="SDaeNK49fz3u2ENC72t_-7" vertex="1">
          <mxGeometry width="150" height="150" as="geometry" />
        </mxCell>
        <mxCell id="SDaeNK49fz3u2ENC72t_-2" value="MediaApi" style="rounded=0;whiteSpace=wrap;html=1;" parent="SDaeNK49fz3u2ENC72t_-7" vertex="1">
          <mxGeometry x="15" y="80" width="120" height="50" as="geometry" />
        </mxCell>
        <mxCell id="SDaeNK49fz3u2ENC72t_-3" value="TrackInfoApi" style="rounded=0;whiteSpace=wrap;html=1;" parent="SDaeNK49fz3u2ENC72t_-7" vertex="1">
          <mxGeometry x="15" y="20" width="120" height="50" as="geometry" />
        </mxCell>
        <mxCell id="SDaeNK49fz3u2ENC72t_-9" value="" style="group" parent="1" vertex="1" connectable="0">
          <mxGeometry x="200" y="60" width="150" height="150" as="geometry" />
        </mxCell>
        <mxCell id="SDaeNK49fz3u2ENC72t_-10" value="DataSources" style="rounded=1;whiteSpace=wrap;html=1;labelPosition=center;verticalLabelPosition=top;align=center;verticalAlign=bottom;" parent="SDaeNK49fz3u2ENC72t_-9" vertex="1">
          <mxGeometry width="150" height="150" as="geometry" />
        </mxCell>
        <mxCell id="SDaeNK49fz3u2ENC72t_-11" value="&lt;div&gt;RemoteMedia&lt;/div&gt;&lt;div&gt;DataSource&lt;/div&gt;" style="rounded=0;whiteSpace=wrap;html=1;" parent="SDaeNK49fz3u2ENC72t_-9" vertex="1">
          <mxGeometry x="15" y="80" width="120" height="50" as="geometry" />
        </mxCell>
        <mxCell id="SDaeNK49fz3u2ENC72t_-12" value="&lt;div&gt;RemoteTrack&lt;/div&gt;&lt;div&gt;InfoDataSource&lt;/div&gt;" style="rounded=0;whiteSpace=wrap;html=1;" parent="SDaeNK49fz3u2ENC72t_-9" vertex="1">
          <mxGeometry x="15" y="20" width="120" height="50" as="geometry" />
        </mxCell>
        <mxCell id="SDaeNK49fz3u2ENC72t_-13" style="edgeStyle=none;curved=1;rounded=0;orthogonalLoop=1;jettySize=auto;html=1;entryX=0;entryY=0.5;entryDx=0;entryDy=0;fontSize=12;startSize=8;endSize=8;" parent="1" source="SDaeNK49fz3u2ENC72t_-12" target="SDaeNK49fz3u2ENC72t_-3" edge="1">
          <mxGeometry relative="1" as="geometry" />
        </mxCell>
        <mxCell id="SDaeNK49fz3u2ENC72t_-14" style="edgeStyle=none;curved=1;rounded=0;orthogonalLoop=1;jettySize=auto;html=1;fontSize=12;startSize=8;endSize=8;" parent="1" source="SDaeNK49fz3u2ENC72t_-11" target="SDaeNK49fz3u2ENC72t_-2" edge="1">
          <mxGeometry relative="1" as="geometry" />
        </mxCell>
        <mxCell id="SDaeNK49fz3u2ENC72t_-15" value="" style="group" parent="1" vertex="1" connectable="0">
          <mxGeometry x="20" y="60" width="150" height="150" as="geometry" />
        </mxCell>
        <mxCell id="SDaeNK49fz3u2ENC72t_-16" value="Repositories" style="rounded=1;whiteSpace=wrap;html=1;labelPosition=center;verticalLabelPosition=top;align=center;verticalAlign=bottom;" parent="SDaeNK49fz3u2ENC72t_-15" vertex="1">
          <mxGeometry width="150" height="150" as="geometry" />
        </mxCell>
        <mxCell id="SDaeNK49fz3u2ENC72t_-17" value="RemoteMedia&lt;div&gt;RepositoryImpl&lt;/div&gt;" style="rounded=0;whiteSpace=wrap;html=1;" parent="SDaeNK49fz3u2ENC72t_-15" vertex="1">
          <mxGeometry x="15" y="80" width="120" height="50" as="geometry" />
        </mxCell>
        <mxCell id="SDaeNK49fz3u2ENC72t_-18" value="&lt;div&gt;RemoteTrackInfo&lt;/div&gt;&lt;div&gt;RepositoryImpl&lt;/div&gt;" style="rounded=0;whiteSpace=wrap;html=1;" parent="SDaeNK49fz3u2ENC72t_-15" vertex="1">
          <mxGeometry x="15" y="20" width="120" height="50" as="geometry" />
        </mxCell>
        <mxCell id="SDaeNK49fz3u2ENC72t_-31" style="edgeStyle=none;curved=1;rounded=0;orthogonalLoop=1;jettySize=auto;html=1;exitX=0.75;exitY=0;exitDx=0;exitDy=0;fontSize=12;startSize=8;endSize=8;" parent="SDaeNK49fz3u2ENC72t_-15" source="SDaeNK49fz3u2ENC72t_-16" target="SDaeNK49fz3u2ENC72t_-16" edge="1">
          <mxGeometry relative="1" as="geometry" />
        </mxCell>
        <mxCell id="SDaeNK49fz3u2ENC72t_-19" style="edgeStyle=none;curved=1;rounded=0;orthogonalLoop=1;jettySize=auto;html=1;fontSize=12;startSize=8;endSize=8;" parent="1" source="SDaeNK49fz3u2ENC72t_-17" target="SDaeNK49fz3u2ENC72t_-11" edge="1">
          <mxGeometry relative="1" as="geometry" />
        </mxCell>
        <mxCell id="SDaeNK49fz3u2ENC72t_-20" style="edgeStyle=none;curved=1;rounded=0;orthogonalLoop=1;jettySize=auto;html=1;fontSize=12;startSize=8;endSize=8;" parent="1" source="SDaeNK49fz3u2ENC72t_-18" target="SDaeNK49fz3u2ENC72t_-12" edge="1">
          <mxGeometry relative="1" as="geometry" />
        </mxCell>
        <mxCell id="SDaeNK49fz3u2ENC72t_-23" value="Models" style="rounded=1;whiteSpace=wrap;html=1;labelPosition=center;verticalLabelPosition=top;align=center;verticalAlign=bottom;" parent="1" vertex="1">
          <mxGeometry x="560" y="-30" width="150" height="180" as="geometry" />
        </mxCell>
        <mxCell id="SDaeNK49fz3u2ENC72t_-24" value="TrackModel" style="rounded=0;whiteSpace=wrap;html=1;" parent="1" vertex="1">
          <mxGeometry x="575" y="-10" width="120" height="50" as="geometry" />
        </mxCell>
        <mxCell id="SDaeNK49fz3u2ENC72t_-35" style="edgeStyle=none;curved=1;rounded=0;orthogonalLoop=1;jettySize=auto;html=1;fontSize=12;startSize=8;endSize=8;" parent="1" source="SDaeNK49fz3u2ENC72t_-25" target="SDaeNK49fz3u2ENC72t_-24" edge="1">
          <mxGeometry relative="1" as="geometry" />
        </mxCell>
        <mxCell id="SDaeNK49fz3u2ENC72t_-25" value="&lt;div&gt;TracksInfo&lt;/div&gt;&lt;div&gt;ResponseModel&lt;/div&gt;" style="rounded=0;whiteSpace=wrap;html=1;" parent="1" vertex="1">
          <mxGeometry x="575" y="80" width="120" height="50" as="geometry" />
        </mxCell>
        <mxCell id="SDaeNK49fz3u2ENC72t_-34" style="edgeStyle=none;curved=1;rounded=0;orthogonalLoop=1;jettySize=auto;html=1;fontSize=12;startSize=8;endSize=8;" parent="1" source="SDaeNK49fz3u2ENC72t_-3" target="SDaeNK49fz3u2ENC72t_-25" edge="1">
          <mxGeometry relative="1" as="geometry" />
        </mxCell>
        <mxCell id="SDaeNK49fz3u2ENC72t_-39" style="edgeStyle=orthogonalEdgeStyle;rounded=0;orthogonalLoop=1;jettySize=auto;html=1;fontSize=12;startSize=8;endSize=8;" parent="1" source="SDaeNK49fz3u2ENC72t_-12" target="SDaeNK49fz3u2ENC72t_-24" edge="1">
          <mxGeometry relative="1" as="geometry">
            <Array as="points">
              <mxPoint x="275" y="15" />
            </Array>
          </mxGeometry>
        </mxCell>
        <mxCell id="SDaeNK49fz3u2ENC72t_-40" style="edgeStyle=orthogonalEdgeStyle;rounded=0;orthogonalLoop=1;jettySize=auto;html=1;fontSize=12;startSize=8;endSize=8;" parent="1" source="SDaeNK49fz3u2ENC72t_-3" target="SDaeNK49fz3u2ENC72t_-24" edge="1">
          <mxGeometry relative="1" as="geometry">
            <Array as="points">
              <mxPoint x="455" y="15" />
            </Array>
          </mxGeometry>
        </mxCell>
        <mxCell id="SDaeNK49fz3u2ENC72t_-44" style="edgeStyle=none;curved=1;rounded=0;orthogonalLoop=1;jettySize=auto;html=1;fontSize=12;startSize=8;endSize=8;exitX=0;exitY=0.25;exitDx=0;exitDy=0;entryX=1;entryY=0.25;entryDx=0;entryDy=0;" parent="1" source="SDaeNK49fz3u2ENC72t_-18" target="SDaeNK49fz3u2ENC72t_-43" edge="1">
          <mxGeometry relative="1" as="geometry" />
        </mxCell>
        <mxCell id="SDaeNK49fz3u2ENC72t_-46" value="Mappers" style="rounded=1;whiteSpace=wrap;html=1;labelPosition=center;verticalLabelPosition=top;align=center;verticalAlign=bottom;" parent="1" vertex="1">
          <mxGeometry x="20" y="-50" width="150" height="80" as="geometry" />
        </mxCell>
        <mxCell id="SDaeNK49fz3u2ENC72t_-48" style="edgeStyle=orthogonalEdgeStyle;rounded=0;orthogonalLoop=1;jettySize=auto;html=1;fontSize=12;startSize=8;endSize=8;" parent="1" source="SDaeNK49fz3u2ENC72t_-47" target="SDaeNK49fz3u2ENC72t_-43" edge="1">
          <mxGeometry relative="1" as="geometry" />
        </mxCell>
        <mxCell id="SDaeNK49fz3u2ENC72t_-49" style="edgeStyle=orthogonalEdgeStyle;rounded=0;orthogonalLoop=1;jettySize=auto;html=1;fontSize=12;startSize=8;endSize=8;" parent="1" source="SDaeNK49fz3u2ENC72t_-47" target="SDaeNK49fz3u2ENC72t_-24" edge="1">
          <mxGeometry relative="1" as="geometry">
            <Array as="points">
              <mxPoint x="365" y="-10" />
              <mxPoint x="365" y="-40" />
              <mxPoint x="635" y="-40" />
            </Array>
          </mxGeometry>
        </mxCell>
        <mxCell id="SDaeNK49fz3u2ENC72t_-47" value="TrackMapper" style="rounded=0;whiteSpace=wrap;html=1;" parent="1" vertex="1">
          <mxGeometry x="35" y="-40" width="120" height="60" as="geometry" />
        </mxCell>
        <mxCell id="gx3o-NQ9ANbg5HNAcx9x-1" value="" style="group" vertex="1" connectable="0" parent="1">
          <mxGeometry x="-270" y="60" width="190" height="100" as="geometry" />
        </mxCell>
        <mxCell id="SDaeNK49fz3u2ENC72t_-41" value="Utils" style="rounded=1;whiteSpace=wrap;html=1;labelPosition=center;verticalLabelPosition=top;align=center;verticalAlign=bottom;fontSize=24;" parent="gx3o-NQ9ANbg5HNAcx9x-1" vertex="1">
          <mxGeometry width="190" height="100" as="geometry" />
        </mxCell>
        <mxCell id="SDaeNK49fz3u2ENC72t_-43" value="TrackDTO" style="rounded=0;whiteSpace=wrap;html=1;" parent="gx3o-NQ9ANbg5HNAcx9x-1" vertex="1">
          <mxGeometry x="35" y="20" width="120" height="60" as="geometry" />
        </mxCell>
        <mxCell id="gx3o-NQ9ANbg5HNAcx9x-2" value="Domain" style="rounded=1;whiteSpace=wrap;html=1;labelPosition=center;verticalLabelPosition=top;align=center;verticalAlign=bottom;fontSize=24;" vertex="1" parent="1">
          <mxGeometry y="270" width="760" height="310" as="geometry" />
        </mxCell>
        <mxCell id="gx3o-NQ9ANbg5HNAcx9x-4" value="" style="group" vertex="1" connectable="0" parent="1">
          <mxGeometry x="20" y="290" width="150" height="150" as="geometry" />
        </mxCell>
        <mxCell id="gx3o-NQ9ANbg5HNAcx9x-5" value="Repositories" style="rounded=1;whiteSpace=wrap;html=1;labelPosition=center;verticalLabelPosition=top;align=center;verticalAlign=bottom;" vertex="1" parent="gx3o-NQ9ANbg5HNAcx9x-4">
          <mxGeometry width="150" height="150" as="geometry" />
        </mxCell>
        <mxCell id="gx3o-NQ9ANbg5HNAcx9x-7" value="&lt;div&gt;TrackInfo&lt;/div&gt;&lt;div&gt;Repository&lt;/div&gt;" style="rounded=0;whiteSpace=wrap;html=1;" vertex="1" parent="gx3o-NQ9ANbg5HNAcx9x-4">
          <mxGeometry x="15" y="80" width="122" height="50" as="geometry" />
        </mxCell>
        <mxCell id="gx3o-NQ9ANbg5HNAcx9x-8" style="edgeStyle=none;curved=1;rounded=0;orthogonalLoop=1;jettySize=auto;html=1;exitX=0.75;exitY=0;exitDx=0;exitDy=0;fontSize=12;startSize=8;endSize=8;" edge="1" parent="gx3o-NQ9ANbg5HNAcx9x-4" source="gx3o-NQ9ANbg5HNAcx9x-5" target="gx3o-NQ9ANbg5HNAcx9x-5">
          <mxGeometry relative="1" as="geometry" />
        </mxCell>
        <mxCell id="gx3o-NQ9ANbg5HNAcx9x-6" value="Media&lt;div&gt;Repository&lt;/div&gt;" style="rounded=0;whiteSpace=wrap;html=1;" vertex="1" parent="gx3o-NQ9ANbg5HNAcx9x-4">
          <mxGeometry x="15" y="10" width="120" height="50" as="geometry" />
        </mxCell>
        <mxCell id="gx3o-NQ9ANbg5HNAcx9x-10" style="edgeStyle=none;curved=1;rounded=0;orthogonalLoop=1;jettySize=auto;html=1;fontSize=12;startSize=8;endSize=8;" edge="1" parent="1" source="SDaeNK49fz3u2ENC72t_-17" target="gx3o-NQ9ANbg5HNAcx9x-6">
          <mxGeometry relative="1" as="geometry" />
        </mxCell>
        <mxCell id="gx3o-NQ9ANbg5HNAcx9x-11" style="edgeStyle=orthogonalEdgeStyle;rounded=0;orthogonalLoop=1;jettySize=auto;html=1;fontSize=12;startSize=8;endSize=8;" edge="1" parent="1" source="SDaeNK49fz3u2ENC72t_-18" target="gx3o-NQ9ANbg5HNAcx9x-7">
          <mxGeometry relative="1" as="geometry">
            <Array as="points">
              <mxPoint x="-30" y="105" />
              <mxPoint x="-30" y="395" />
            </Array>
          </mxGeometry>
        </mxCell>
        <mxCell id="gx3o-NQ9ANbg5HNAcx9x-22" style="edgeStyle=orthogonalEdgeStyle;rounded=0;orthogonalLoop=1;jettySize=auto;html=1;exitX=0;exitY=0.75;exitDx=0;exitDy=0;fontSize=12;startSize=8;endSize=8;" edge="1" parent="1" source="gx3o-NQ9ANbg5HNAcx9x-13" target="SDaeNK49fz3u2ENC72t_-43">
          <mxGeometry relative="1" as="geometry" />
        </mxCell>
        <mxCell id="gx3o-NQ9ANbg5HNAcx9x-23" value="" style="group" vertex="1" connectable="0" parent="1">
          <mxGeometry x="180" y="290" width="440" height="270" as="geometry" />
        </mxCell>
        <mxCell id="gx3o-NQ9ANbg5HNAcx9x-13" value="Repositories" style="rounded=1;whiteSpace=wrap;html=1;labelPosition=center;verticalLabelPosition=top;align=center;verticalAlign=bottom;" vertex="1" parent="gx3o-NQ9ANbg5HNAcx9x-23">
          <mxGeometry width="440" height="270" as="geometry" />
        </mxCell>
        <mxCell id="gx3o-NQ9ANbg5HNAcx9x-14" value="UnlikeUsecase" style="rounded=0;whiteSpace=wrap;html=1;" vertex="1" parent="gx3o-NQ9ANbg5HNAcx9x-23">
          <mxGeometry x="290" y="80" width="122" height="50" as="geometry" />
        </mxCell>
        <mxCell id="gx3o-NQ9ANbg5HNAcx9x-15" style="edgeStyle=none;curved=1;rounded=0;orthogonalLoop=1;jettySize=auto;html=1;exitX=0.75;exitY=0;exitDx=0;exitDy=0;fontSize=12;startSize=8;endSize=8;" edge="1" parent="gx3o-NQ9ANbg5HNAcx9x-23" source="gx3o-NQ9ANbg5HNAcx9x-13" target="gx3o-NQ9ANbg5HNAcx9x-13">
          <mxGeometry relative="1" as="geometry" />
        </mxCell>
        <mxCell id="gx3o-NQ9ANbg5HNAcx9x-16" value="LikeUseCase" style="rounded=0;whiteSpace=wrap;html=1;" vertex="1" parent="gx3o-NQ9ANbg5HNAcx9x-23">
          <mxGeometry x="290" y="20" width="122" height="50" as="geometry" />
        </mxCell>
        <mxCell id="gx3o-NQ9ANbg5HNAcx9x-17" value="&lt;div&gt;GetInitialTracks&lt;/div&gt;&lt;div&gt;UseCase&lt;br&gt;&lt;/div&gt;" style="rounded=0;whiteSpace=wrap;html=1;" vertex="1" parent="gx3o-NQ9ANbg5HNAcx9x-23">
          <mxGeometry x="292" y="140" width="122" height="50" as="geometry" />
        </mxCell>
        <mxCell id="gx3o-NQ9ANbg5HNAcx9x-18" value="&lt;div&gt;SearchTracks&lt;/div&gt;&lt;div&gt;UseCase&lt;br&gt;&lt;/div&gt;" style="rounded=0;whiteSpace=wrap;html=1;" vertex="1" parent="gx3o-NQ9ANbg5HNAcx9x-23">
          <mxGeometry x="292" y="200" width="122" height="50" as="geometry" />
        </mxCell>
        <mxCell id="gx3o-NQ9ANbg5HNAcx9x-19" value="&lt;div&gt;GetTrackURL&lt;/div&gt;&lt;div&gt;UseCase&lt;br&gt;&lt;/div&gt;" style="rounded=0;whiteSpace=wrap;html=1;" vertex="1" parent="gx3o-NQ9ANbg5HNAcx9x-23">
          <mxGeometry x="159" y="200" width="122" height="50" as="geometry" />
        </mxCell>
        <mxCell id="gx3o-NQ9ANbg5HNAcx9x-20" value="&lt;div&gt;GetMeadiaItem&lt;/div&gt;&lt;div&gt;ByURLUseCase&lt;br&gt;&lt;/div&gt;" style="rounded=0;whiteSpace=wrap;html=1;" vertex="1" parent="gx3o-NQ9ANbg5HNAcx9x-23">
          <mxGeometry x="19" y="200" width="122" height="50" as="geometry" />
        </mxCell>
        <mxCell id="gx3o-NQ9ANbg5HNAcx9x-24" style="edgeStyle=orthogonalEdgeStyle;rounded=0;orthogonalLoop=1;jettySize=auto;html=1;fontSize=12;startSize=8;endSize=8;" edge="1" parent="1" source="gx3o-NQ9ANbg5HNAcx9x-20" target="gx3o-NQ9ANbg5HNAcx9x-6">
          <mxGeometry relative="1" as="geometry">
            <Array as="points">
              <mxPoint x="280" y="325" />
            </Array>
          </mxGeometry>
        </mxCell>
        <mxCell id="gx3o-NQ9ANbg5HNAcx9x-25" style="edgeStyle=orthogonalEdgeStyle;rounded=0;orthogonalLoop=1;jettySize=auto;html=1;fontSize=12;startSize=8;endSize=8;" edge="1" parent="1" source="gx3o-NQ9ANbg5HNAcx9x-16" target="gx3o-NQ9ANbg5HNAcx9x-7">
          <mxGeometry relative="1" as="geometry">
            <Array as="points">
              <mxPoint x="400" y="335" />
              <mxPoint x="400" y="395" />
            </Array>
          </mxGeometry>
        </mxCell>
        <mxCell id="gx3o-NQ9ANbg5HNAcx9x-26" style="edgeStyle=none;curved=1;rounded=0;orthogonalLoop=1;jettySize=auto;html=1;fontSize=12;startSize=8;endSize=8;" edge="1" parent="1" source="gx3o-NQ9ANbg5HNAcx9x-14" target="gx3o-NQ9ANbg5HNAcx9x-7">
          <mxGeometry relative="1" as="geometry" />
        </mxCell>
        <mxCell id="gx3o-NQ9ANbg5HNAcx9x-27" style="edgeStyle=orthogonalEdgeStyle;rounded=0;orthogonalLoop=1;jettySize=auto;html=1;fontSize=12;startSize=8;endSize=8;" edge="1" parent="1" source="gx3o-NQ9ANbg5HNAcx9x-17" target="gx3o-NQ9ANbg5HNAcx9x-7">
          <mxGeometry relative="1" as="geometry">
            <Array as="points">
              <mxPoint x="400" y="455" />
              <mxPoint x="400" y="395" />
            </Array>
          </mxGeometry>
        </mxCell>
        <mxCell id="gx3o-NQ9ANbg5HNAcx9x-28" style="edgeStyle=none;curved=1;rounded=0;orthogonalLoop=1;jettySize=auto;html=1;fontSize=12;startSize=8;endSize=8;exitX=-0.016;exitY=1.2;exitDx=0;exitDy=0;exitPerimeter=0;" edge="1" parent="1" source="gx3o-NQ9ANbg5HNAcx9x-17" target="gx3o-NQ9ANbg5HNAcx9x-7">
          <mxGeometry relative="1" as="geometry">
            <mxPoint x="500" y="490" as="sourcePoint" />
            <Array as="points">
              <mxPoint x="360" y="390" />
            </Array>
          </mxGeometry>
        </mxCell>
        <mxCell id="gx3o-NQ9ANbg5HNAcx9x-29" style="edgeStyle=orthogonalEdgeStyle;rounded=0;orthogonalLoop=1;jettySize=auto;html=1;fontSize=12;startSize=8;endSize=8;" edge="1" parent="1" source="gx3o-NQ9ANbg5HNAcx9x-19" target="gx3o-NQ9ANbg5HNAcx9x-7">
          <mxGeometry relative="1" as="geometry">
            <Array as="points">
              <mxPoint x="400" y="395" />
            </Array>
          </mxGeometry>
        </mxCell>
        <mxCell id="gx3o-NQ9ANbg5HNAcx9x-32" style="edgeStyle=none;curved=1;rounded=0;orthogonalLoop=1;jettySize=auto;html=1;fontSize=12;startSize=8;endSize=8;" edge="1" parent="1" source="gx3o-NQ9ANbg5HNAcx9x-31" target="gx3o-NQ9ANbg5HNAcx9x-20">
          <mxGeometry relative="1" as="geometry" />
        </mxCell>
        <mxCell id="gx3o-NQ9ANbg5HNAcx9x-33" style="edgeStyle=orthogonalEdgeStyle;rounded=0;orthogonalLoop=1;jettySize=auto;html=1;fontSize=12;startSize=8;endSize=8;" edge="1" parent="1" source="gx3o-NQ9ANbg5HNAcx9x-31" target="gx3o-NQ9ANbg5HNAcx9x-19">
          <mxGeometry relative="1" as="geometry">
            <Array as="points">
              <mxPoint x="94" y="470" />
              <mxPoint x="370" y="470" />
            </Array>
          </mxGeometry>
        </mxCell>
        <mxCell id="gx3o-NQ9ANbg5HNAcx9x-31" value="MusicPlayer" style="rounded=0;whiteSpace=wrap;html=1;" vertex="1" parent="1">
          <mxGeometry x="33" y="490" width="122" height="50" as="geometry" />
        </mxCell>
      </root>
    </mxGraphModel>
  </diagram>
</mxfile>
